# xmcd CD database file
#
# Track frame offsets:
#	150
#	14901
#	29780
#	49139
#
# Disc length: 849 seconds
#
# Revision: 0
# Processed by: cddbd v1.5.2PL0 Copyright (c) Steve Scherf et al.
# Submitted via: CDex 1.70beta2
#
DISCID=37034f04
DTITLE=Astrid Breck - Mach´s noch mal
DYEAR=2011
DGENRE=Schlager
TTITLE0=Mach´s noch mal ( Radio Version)
TTITLE1=Mach's noch mal (Heartbeat DJ-Mix)
TTITLE2=Mach's noch mal ( Heartbeat Extended DJ - Mix )
TTITLE3=Mach's noch mal (Karaoke Version)
EXTD=YEAR: 2011
EXTT0=
EXTT1=
EXTT2=
EXTT3=
PLAYORDER=
